<!-- Generated by IcoMoon.io -->
<svg version="1.1" xmlns="http://www.w3.org/2000/svg" width="512" height="448" viewBox="0 0 512 448">
<g id="icomoon-ignore">
</g>
<path fill="#000" d="M196.25 252h51.75c-4.75 52.75-35 84.75-78.25 84.75-54 0-86.75-41.5-86.75-108 0-66 36-107.25 81.5-107.25 50 0 78 31 82.25 83.5h-50.75c-1.75-21.25-12.25-33.5-29.25-33.5-18.75 0-30 20-30 59.5 0 28.75 5 55.75 32.25 55.75 17.25 0 25.25-15 27.25-34.75zM374.25 252h51.5c-4.75 52.75-34.75 84.75-78 84.75-54 0-86.75-41.5-86.75-108 0-66 36-107.25 81.5-107.25 50 0 78 31 82.25 83.5h-51c-1.5-21.25-12.25-33.5-29-33.5-18.75 0-30 20-30 59.5 0 28.75 4.75 55.75 32 55.75 17.25 0 25.5-15 27.5-34.75zM464 222.25c0-67-3.5-96-19-117-3.25-4.25-8.5-7-12.75-10-15.75-11.5-89-15.75-174.25-15.75s-162 4.25-177.5 15.75c-4.5 3.25-10 5.75-13.25 10-15.5 20.75-18.75 50-18.75 117 0 67.25 3.5 96.25 18.75 117 3.5 4.75 8.75 6.75 13.25 10.25 15.5 11.5 92.25 16.25 177.5 16.25s158.5-4.5 174.25-16.25c4.25-3.25 9.75-5.25 12.75-10.25 15.75-20.5 19-49.75 19-117zM512 32v384h-512v-384h512z"></path>
</svg>
